<svg width="64" height="64" viewBox="0 0 64 64" fill="none" xmlns="http://www.w3.org/2000/svg">
<rect width="64" height="64" rx="16" fill="#EE3C63"/>
<path d="M32.9998 45.3334C25.6358 45.3334 19.6665 39.3641 19.6665 32.0001C19.6665 24.6361 25.6358 18.6667 32.9998 18.6667C40.3638 18.6667 46.3332 24.6361 46.3332 32.0001C46.3332 39.3641 40.3638 45.3334 32.9998 45.3334ZM32.9998 42.6667C35.8288 42.6667 38.5419 41.5429 40.5423 39.5426C42.5427 37.5422 43.6665 34.8291 43.6665 32.0001C43.6665 29.1711 42.5427 26.458 40.5423 24.4576C38.5419 22.4572 35.8288 21.3334 32.9998 21.3334C30.1709 21.3334 27.4578 22.4572 25.4574 24.4576C23.457 26.458 22.3332 29.1711 22.3332 32.0001C22.3332 34.8291 23.457 37.5422 25.4574 39.5426C27.4578 41.5429 30.1709 42.6667 32.9998 42.6667V42.6667ZM28.3332 34.6667H35.6665C35.8433 34.6667 36.0129 34.5965 36.1379 34.4715C36.2629 34.3465 36.3332 34.1769 36.3332 34.0001C36.3332 33.8233 36.2629 33.6537 36.1379 33.5287C36.0129 33.4037 35.8433 33.3334 35.6665 33.3334H30.3332C29.4491 33.3334 28.6013 32.9822 27.9761 32.3571C27.351 31.732 26.9998 30.8841 26.9998 30.0001C26.9998 29.116 27.351 28.2682 27.9761 27.6431C28.6013 27.0179 29.4491 26.6667 30.3332 26.6667H31.6665V24.0001H34.3332V26.6667H37.6665V29.3334H30.3332C30.1564 29.3334 29.9868 29.4037 29.8618 29.5287C29.7367 29.6537 29.6665 29.8233 29.6665 30.0001C29.6665 30.1769 29.7367 30.3465 29.8618 30.4715C29.9868 30.5965 30.1564 30.6667 30.3332 30.6667H35.6665C36.5506 30.6667 37.3984 31.0179 38.0235 31.6431C38.6486 32.2682 38.9998 33.116 38.9998 34.0001C38.9998 34.8841 38.6486 35.732 38.0235 36.3571C37.3984 36.9822 36.5506 37.3334 35.6665 37.3334H34.3332V40.0001H31.6665V37.3334H28.3332V34.6667Z" fill="white"/>
</svg>
