<svg width="64" height="64" viewBox="0 0 64 64" fill="none" xmlns="http://www.w3.org/2000/svg">
<rect width="64" height="64" rx="16" fill="#2EA8E0"/>
<path d="M21.044 19.7679L32 17.3333L42.956 19.7679C43.2521 19.8337 43.5169 19.9985 43.7067 20.2351C43.8965 20.4717 43.9999 20.7659 44 21.0693V34.3853C43.9999 35.7022 43.6747 36.9988 43.0532 38.1599C42.4317 39.321 41.5332 40.3108 40.4373 41.0413L32 46.6666L23.5627 41.0413C22.467 40.3109 21.5686 39.3214 20.9471 38.1605C20.3256 36.9997 20.0003 35.7033 20 34.3866V21.0693C20.0001 20.7659 20.1035 20.4717 20.2933 20.2351C20.4831 19.9985 20.7479 19.8337 21.044 19.7679V19.7679ZM22.6667 22.1386V34.3853C22.6667 35.2632 22.8834 36.1276 23.2977 36.9016C23.7119 37.6757 24.3109 38.3355 25.0413 38.8226L32 43.4626L38.9587 38.8226C39.6889 38.3357 40.2878 37.676 40.702 36.9022C41.1162 36.1284 41.3331 35.2643 41.3333 34.3866V22.1386L32 20.0666L22.6667 22.1386ZM32 30.6666C31.1159 30.6666 30.2681 30.3154 29.643 29.6903C29.0179 29.0652 28.6667 28.2173 28.6667 27.3333C28.6667 26.4492 29.0179 25.6014 29.643 24.9762C30.2681 24.3511 31.1159 23.9999 32 23.9999C32.8841 23.9999 33.7319 24.3511 34.357 24.9762C34.9821 25.6014 35.3333 26.4492 35.3333 27.3333C35.3333 28.2173 34.9821 29.0652 34.357 29.6903C33.7319 30.3154 32.8841 30.6666 32 30.6666V30.6666ZM26.036 37.3333C26.1976 35.8645 26.8956 34.5069 27.9961 33.5209C29.0966 32.5348 30.5223 31.9895 32 31.9895C33.4777 31.9895 34.9034 32.5348 36.0039 33.5209C37.1044 34.5069 37.8024 35.8645 37.964 37.3333H26.036Z" fill="white"/>
</svg>
