<svg width="64" height="64" viewBox="0 0 64 64" fill="none" xmlns="http://www.w3.org/2000/svg">
<rect width="64" height="64" rx="16" fill="#7A57A4"/>
<path d="M24.0001 41.3334H20.0001C19.6465 41.3334 19.3073 41.1929 19.0573 40.9429C18.8072 40.6928 18.6667 40.3537 18.6667 40.0001V26.6667C18.6667 26.3131 18.8072 25.974 19.0573 25.7239C19.3073 25.4739 19.6465 25.3334 20.0001 25.3334H24.0001V20.0001C24.0001 19.6465 24.1406 19.3073 24.3906 19.0573C24.6407 18.8072 24.9798 18.6667 25.3334 18.6667H38.6667C39.0204 18.6667 39.3595 18.8072 39.6096 19.0573C39.8596 19.3073 40.0001 19.6465 40.0001 20.0001V25.3334H44.0001C44.3537 25.3334 44.6928 25.4739 44.9429 25.7239C45.1929 25.974 45.3334 26.3131 45.3334 26.6667V40.0001C45.3334 40.3537 45.1929 40.6928 44.9429 40.9429C44.6928 41.1929 44.3537 41.3334 44.0001 41.3334H40.0001V44.0001C40.0001 44.3537 39.8596 44.6928 39.6096 44.9429C39.3595 45.1929 39.0204 45.3334 38.6667 45.3334H25.3334C24.9798 45.3334 24.6407 45.1929 24.3906 44.9429C24.1406 44.6928 24.0001 44.3537 24.0001 44.0001V41.3334ZM24.0001 38.6667V37.3334C24.0001 36.9798 24.1406 36.6407 24.3906 36.3906C24.6407 36.1406 24.9798 36.0001 25.3334 36.0001H38.6667C39.0204 36.0001 39.3595 36.1406 39.6096 36.3906C39.8596 36.6407 40.0001 36.9798 40.0001 37.3334V38.6667H42.6667V28.0001H21.3334V38.6667H24.0001ZM26.6667 21.3334V25.3334H37.3334V21.3334H26.6667ZM26.6667 38.6667V42.6667H37.3334V38.6667H26.6667ZM22.6667 29.3334H26.6667V32.0001H22.6667V29.3334Z" fill="white"/>
</svg>
