<svg width="64" height="64" viewBox="0 0 64 64" fill="none" xmlns="http://www.w3.org/2000/svg">
<rect width="64" height="64" rx="16" fill="#F4EB30"/>
<path d="M32 21.3333C40.1 21.3333 46.6667 27.8999 46.6667 35.9999V42.6666H44V35.9999C44 32.8785 42.7837 29.88 40.6093 27.6406C38.4349 25.4012 35.4734 24.0972 32.3534 24.0053L32 23.9999C28.8786 24 25.8801 25.2162 23.6407 27.3907C21.4013 29.5651 20.0973 32.5265 20.0054 35.6466L20 35.9999V42.6666H17.3334V35.9999C17.3334 27.8999 23.9 21.3333 32 21.3333ZM32 26.6666C34.4754 26.6666 36.8494 27.6499 38.5997 29.4003C40.35 31.1506 41.3334 33.5246 41.3334 35.9999V42.6666H38.6667V35.9999C38.6666 34.282 38.0033 32.6304 36.8152 31.3895C35.627 30.1487 34.0057 29.4145 32.2894 29.3399L32 29.3333C30.2821 29.3334 28.6305 29.9966 27.3897 31.1848C26.1488 32.373 25.4146 33.9943 25.34 35.7106L25.3334 35.9999V42.6666H22.6667V35.9999C22.6667 33.5246 23.65 31.1506 25.4004 29.4003C27.1507 27.6499 29.5247 26.6666 32 26.6666V26.6666ZM32 31.9999C33.0609 31.9999 34.0783 32.4213 34.8285 33.1715C35.5786 33.9216 36 34.9391 36 35.9999V42.6666H33.3334V35.9999C33.3333 35.6733 33.2134 35.3581 32.9964 35.1141C32.7794 34.87 32.4804 34.7141 32.156 34.6759L32 34.6666C31.6735 34.6666 31.3583 34.7865 31.1142 35.0035C30.8702 35.2206 30.7142 35.5196 30.676 35.8439L30.6667 35.9999V42.6666H28V35.9999C28 34.9391 28.4215 33.9216 29.1716 33.1715C29.9218 32.4213 30.9392 31.9999 32 31.9999V31.9999Z" fill="white"/>
</svg>
