<svg width="64" height="64" viewBox="0 0 64 64" fill="none" xmlns="http://www.w3.org/2000/svg">
<rect width="64" height="64" rx="16" fill="#054E8F"/>
<path d="M44 18.6667V45.3334H41.3333V34.6667H37.3333V25.3334C37.3333 23.5653 38.0357 21.8696 39.286 20.6194C40.5362 19.3691 42.2319 18.6667 44 18.6667V18.6667ZM28 34.5334V45.3334H25.3333V34.5334C23.8277 34.2256 22.4747 33.4072 21.5029 32.2168C20.5311 31.0263 20.0002 29.5368 20 28.0001V20.0001H22.6667V29.3334H25.3333V20.0001H28V29.3334H30.6667V20.0001H33.3333V28.0001C33.3331 29.5368 32.8023 31.0263 31.8305 32.2168C30.8587 33.4072 29.5056 34.2256 28 34.5334V34.5334Z" fill="white"/>
</svg>
