<svg width="64" height="64" viewBox="0 0 64 64" fill="none" xmlns="http://www.w3.org/2000/svg">
<rect width="64" height="64" rx="16" fill="#F8981C"/>
<path d="M18.6666 45.3333C18.6666 42.5043 19.7904 39.7912 21.7908 37.7908C23.7912 35.7904 26.5043 34.6666 29.3333 34.6666C32.1623 34.6666 34.8754 35.7904 36.8758 37.7908C38.8762 39.7912 40 42.5043 40 45.3333H37.3333C37.3333 43.2115 36.4904 41.1767 34.9901 39.6764C33.4899 38.1761 31.455 37.3333 29.3333 37.3333C27.2116 37.3333 25.1767 38.1761 23.6764 39.6764C22.1761 41.1767 21.3333 43.2115 21.3333 45.3333H18.6666ZM29.3333 33.3333C24.9133 33.3333 21.3333 29.7533 21.3333 25.3333C21.3333 20.9133 24.9133 17.3333 29.3333 17.3333C33.7533 17.3333 37.3333 20.9133 37.3333 25.3333C37.3333 29.7533 33.7533 33.3333 29.3333 33.3333ZM29.3333 30.6666C32.28 30.6666 34.6666 28.2799 34.6666 25.3333C34.6666 22.3866 32.28 19.9999 29.3333 19.9999C26.3866 19.9999 24 22.3866 24 25.3333C24 28.2799 26.3866 30.6666 29.3333 30.6666ZM40.3786 35.6039C42.2524 36.4478 43.8426 37.8149 44.9581 39.5409C46.0735 41.2668 46.6668 43.2782 46.6666 45.3333H44C44.0003 43.7919 43.5554 42.2832 42.7187 40.9887C41.8821 39.6941 40.6894 38.6688 39.284 38.0359L40.3773 35.6039H40.3786ZM39.4613 20.5506C40.8047 21.1043 41.9532 22.0446 42.7613 23.2522C43.5694 24.4598 44.0005 25.8802 44 27.3333C44.0005 29.163 43.3169 30.9269 42.0833 32.2784C40.8498 33.6298 39.1555 34.4712 37.3333 34.6373V31.9533C38.3212 31.8118 39.2378 31.3573 39.9484 30.6565C40.659 29.9558 41.1262 29.0457 41.2815 28.0598C41.4368 27.074 41.2719 26.0643 40.8111 25.1791C40.3503 24.2938 39.6179 23.5796 38.7213 23.1413L39.4613 20.5506V20.5506Z" fill="white"/>
</svg>
