<svg width="64" height="64" viewBox="0 0 64 64" fill="none" xmlns="http://www.w3.org/2000/svg">
<rect width="64" height="64" rx="16" fill="#EE3C63"/>
<path d="M32 30.6667C33.7681 30.6667 35.4638 31.3691 36.7141 32.6194C37.9643 33.8696 38.6667 35.5653 38.6667 37.3334V45.3334H36V37.3334C36.0001 36.3131 35.6103 35.3314 34.9103 34.5891C34.2104 33.8467 33.2532 33.3999 32.2347 33.3401L32 33.3334C30.9797 33.3334 29.998 33.7232 29.2557 34.4231C28.5133 35.1231 28.0665 36.0802 28.0067 37.0987L28 37.3334V45.3334H25.3334V37.3334C25.3334 35.5653 26.0357 33.8696 27.286 32.6194C28.5362 31.3691 30.2319 30.6667 32 30.6667ZM23.3334 34.6667C23.7054 34.6667 24.0667 34.7107 24.4134 34.7921C24.1854 35.4708 24.0504 36.1772 24.012 36.8921L24 37.3334V37.4481C23.8468 37.3932 23.6873 37.3574 23.5254 37.3414L23.3334 37.3334C22.8362 37.3334 22.3568 37.5186 21.9888 37.8529C21.6208 38.1872 21.3904 38.6465 21.3427 39.1414L21.3334 39.3334V45.3334H18.6667V39.3334C18.6667 38.0957 19.1584 36.9088 20.0335 36.0336C20.9087 35.1584 22.0957 34.6667 23.3334 34.6667V34.6667ZM40.6667 34.6667C41.9044 34.6667 43.0914 35.1584 43.9665 36.0336C44.8417 36.9088 45.3334 38.0957 45.3334 39.3334V45.3334H42.6667V39.3334C42.6667 38.8362 42.4815 38.3569 42.1472 37.9889C41.8129 37.6208 41.3536 37.3905 40.8587 37.3427L40.6667 37.3334C40.4334 37.3334 40.2094 37.3734 40 37.4467V37.3334C40 36.4454 39.856 35.5921 39.588 34.7947C39.9334 34.7107 40.2947 34.6667 40.6667 34.6667ZM23.3334 26.6667C24.2174 26.6667 25.0653 27.0179 25.6904 27.6431C26.3155 28.2682 26.6667 29.116 26.6667 30.0001C26.6667 30.8841 26.3155 31.732 25.6904 32.3571C25.0653 32.9822 24.2174 33.3334 23.3334 33.3334C22.4493 33.3334 21.6015 32.9822 20.9763 32.3571C20.3512 31.732 20 30.8841 20 30.0001C20 29.116 20.3512 28.2682 20.9763 27.6431C21.6015 27.0179 22.4493 26.6667 23.3334 26.6667V26.6667ZM40.6667 26.6667C41.5507 26.6667 42.3986 27.0179 43.0237 27.6431C43.6488 28.2682 44 29.116 44 30.0001C44 30.8841 43.6488 31.732 43.0237 32.3571C42.3986 32.9822 41.5507 33.3334 40.6667 33.3334C39.7826 33.3334 38.9348 32.9822 38.3097 32.3571C37.6845 31.732 37.3334 30.8841 37.3334 30.0001C37.3334 29.116 37.6845 28.2682 38.3097 27.6431C38.9348 27.0179 39.7826 26.6667 40.6667 26.6667V26.6667ZM23.3334 29.3334C23.1565 29.3334 22.987 29.4037 22.8619 29.5287C22.7369 29.6537 22.6667 29.8233 22.6667 30.0001C22.6667 30.1769 22.7369 30.3465 22.8619 30.4715C22.987 30.5965 23.1565 30.6667 23.3334 30.6667C23.5102 30.6667 23.6797 30.5965 23.8048 30.4715C23.9298 30.3465 24 30.1769 24 30.0001C24 29.8233 23.9298 29.6537 23.8048 29.5287C23.6797 29.4037 23.5102 29.3334 23.3334 29.3334ZM40.6667 29.3334C40.4899 29.3334 40.3203 29.4037 40.1953 29.5287C40.0703 29.6537 40 29.8233 40 30.0001C40 30.1769 40.0703 30.3465 40.1953 30.4715C40.3203 30.5965 40.4899 30.6667 40.6667 30.6667C40.8435 30.6667 41.0131 30.5965 41.1381 30.4715C41.2631 30.3465 41.3334 30.1769 41.3334 30.0001C41.3334 29.8233 41.2631 29.6537 41.1381 29.5287C41.0131 29.4037 40.8435 29.3334 40.6667 29.3334ZM32 18.6667C33.4145 18.6667 34.7711 19.2287 35.7713 20.2288C36.7715 21.229 37.3334 22.5856 37.3334 24.0001C37.3334 25.4146 36.7715 26.7711 35.7713 27.7713C34.7711 28.7715 33.4145 29.3334 32 29.3334C30.5855 29.3334 29.229 28.7715 28.2288 27.7713C27.2286 26.7711 26.6667 25.4146 26.6667 24.0001C26.6667 22.5856 27.2286 21.229 28.2288 20.2288C29.229 19.2287 30.5855 18.6667 32 18.6667V18.6667ZM32 21.3334C31.2928 21.3334 30.6145 21.6144 30.1144 22.1145C29.6143 22.6146 29.3334 23.2928 29.3334 24.0001C29.3334 24.7073 29.6143 25.3856 30.1144 25.8857C30.6145 26.3858 31.2928 26.6667 32 26.6667C32.7073 26.6667 33.3855 26.3858 33.8856 25.8857C34.3857 25.3856 34.6667 24.7073 34.6667 24.0001C34.6667 23.2928 34.3857 22.6146 33.8856 22.1145C33.3855 21.6144 32.7073 21.3334 32 21.3334V21.3334Z" fill="white"/>
</svg>
