<svg width="64" height="64" viewBox="0 0 64 64" fill="none" xmlns="http://www.w3.org/2000/svg">
<rect width="64" height="64" rx="16" fill="#97C93C"/>
<path d="M32 47.6373L23.5147 39.152C21.8365 37.4737 20.6936 35.3355 20.2306 33.0078C19.7676 30.68 20.0052 28.2672 20.9135 26.0745C21.8217 23.8818 23.3598 22.0077 25.3332 20.6891C27.3066 19.3705 29.6266 18.6667 32 18.6667C34.3734 18.6667 36.6934 19.3705 38.6668 20.6891C40.6402 22.0077 42.1783 23.8818 43.0865 26.0745C43.9948 28.2672 44.2324 30.68 43.7694 33.0078C43.3064 35.3355 42.1636 37.4737 40.4853 39.152L32 47.6373ZM38.6 37.2666C39.9052 35.9613 40.794 34.2983 41.1541 32.4878C41.5141 30.6773 41.3292 28.8008 40.6228 27.0954C39.9163 25.39 38.7201 23.9324 37.1852 22.9069C35.6504 21.8814 33.8459 21.334 32 21.334C30.1541 21.334 28.3496 21.8814 26.8148 22.9069C25.2799 23.9324 24.0837 25.39 23.3772 27.0954C22.6708 28.8008 22.4859 30.6773 22.8459 32.4878C23.206 34.2983 24.0948 35.9613 25.4 37.2666L32 43.8666L38.6 37.2666V37.2666ZM32 33.3333C31.2928 33.3333 30.6145 33.0524 30.1144 32.5523C29.6143 32.0522 29.3333 31.3739 29.3333 30.6666C29.3333 29.9594 29.6143 29.2811 30.1144 28.781C30.6145 28.2809 31.2928 28 32 28C32.7072 28 33.3855 28.2809 33.8856 28.781C34.3857 29.2811 34.6667 29.9594 34.6667 30.6666C34.6667 31.3739 34.3857 32.0522 33.8856 32.5523C33.3855 33.0524 32.7072 33.3333 32 33.3333Z" fill="white"/>
</svg>
