<svg width="64" height="64" viewBox="0 0 64 64" fill="none" xmlns="http://www.w3.org/2000/svg">
<rect width="64" height="64" rx="16" fill="#7A57A4"/>
<path d="M41.3333 41.3334V29.0654L32 21.7027L22.6667 29.0654V41.3334H41.3333ZM44 42.6667C44 43.0203 43.8595 43.3595 43.6095 43.6095C43.3594 43.8596 43.0203 44 42.6667 44H21.3333C20.9797 44 20.6406 43.8596 20.3905 43.6095C20.1405 43.3595 20 43.0203 20 42.6667V28.4187C19.9999 28.2173 20.0455 28.0185 20.1332 27.8372C20.221 27.6559 20.3486 27.4969 20.5067 27.372L31.1733 18.9574C31.4087 18.7714 31.7 18.6702 32 18.6702C32.3 18.6702 32.5913 18.7714 32.8267 18.9574L43.4933 27.3707C43.6515 27.4957 43.7793 27.655 43.8671 27.8365C43.9548 28.018 44.0003 28.2171 44 28.4187V42.6667V42.6667ZM25.3333 32H28C28 33.0609 28.4214 34.0783 29.1716 34.8285C29.9217 35.5786 30.9391 36 32 36C33.0609 36 34.0783 35.5786 34.8284 34.8285C35.5786 34.0783 36 33.0609 36 32H38.6667C38.6667 33.7681 37.9643 35.4638 36.714 36.7141C35.4638 37.9643 33.7681 38.6667 32 38.6667C30.2319 38.6667 28.5362 37.9643 27.286 36.7141C26.0357 35.4638 25.3333 33.7681 25.3333 32V32Z" fill="white"/>
</svg>
