<svg width="64" height="64" viewBox="0 0 64 64" fill="none" xmlns="http://www.w3.org/2000/svg">
<rect width="64" height="64" rx="16" fill="#054E8F"/>
<path d="M30.6667 18.7333V21.4159C25.4054 22.0719 21.3334 26.5599 21.3334 31.9999C21.3334 37.8906 26.1094 42.6666 32.0001 42.6666C34.4654 42.6666 36.7334 41.8306 38.5414 40.4266L40.4387 42.3239C38.1401 44.2039 35.2001 45.3333 32.0001 45.3333C24.6361 45.3333 18.6667 39.3639 18.6667 31.9999C18.6667 25.0866 23.9294 19.4013 30.6667 18.7333V18.7333ZM45.2667 33.3333C45.0001 36.0146 43.9414 38.4626 42.3241 40.4373L40.4267 38.5413C41.5734 37.0653 42.3414 35.2813 42.5841 33.3333H45.2681H45.2667ZM33.3361 18.7333C39.6347 19.3586 44.6427 24.3679 45.2694 30.6666H42.5854C41.9841 25.8426 38.1601 22.0186 33.3361 21.4159V18.7319V18.7333Z" fill="white"/>
</svg>
