<svg width="64" height="64" viewBox="0 0 64 64" fill="none" xmlns="http://www.w3.org/2000/svg">
<rect width="64" height="64" rx="16" fill="#F4EB30"/>
<path d="M20 33.3334H44V44.0027C44 44.7374 43.4067 45.3334 42.676 45.3334H21.324C21.1497 45.3331 20.9771 45.2984 20.8162 45.2313C20.6553 45.1642 20.5092 45.0661 20.3862 44.9425C20.2633 44.8189 20.1659 44.6723 20.0996 44.5111C20.0333 44.3498 19.9995 44.1771 20 44.0027V33.3334ZM20 19.9974C20 19.2627 20.5933 18.6667 21.324 18.6667H42.676C43.4067 18.6667 44 19.2614 44 19.9974V30.6667H20V19.9974ZM28 22.6667V25.3334H36V22.6667H28ZM28 37.3334V40.0001H36V37.3334H28Z" fill="white"/>
</svg>
