<svg width="64" height="64" viewBox="0 0 64 64" fill="none" xmlns="http://www.w3.org/2000/svg">
<rect width="64" height="64" rx="16" fill="#F8981C"/>
<path d="M20.0001 29.3333H44.0001V42.672C44.0001 43.4053 43.4067 44 42.6761 44H21.3241C21.1499 43.9998 20.9775 43.9653 20.8167 43.8985C20.6559 43.8316 20.5098 43.7337 20.3868 43.6104C20.2639 43.4871 20.1664 43.3407 20.1001 43.1797C20.0337 43.0187 19.9997 42.8462 20.0001 42.672V29.3333ZM28.0001 32V34.6667H36.0001V32H28.0001ZM18.6667 21.3333C18.6667 20.5973 19.2734 20 19.9894 20H44.0107C44.7414 20 45.3334 20.592 45.3334 21.3333V26.6667H18.6667V21.3333Z" fill="white"/>
</svg>
