<svg width="64" height="64" viewBox="0 0 64 64" fill="none" xmlns="http://www.w3.org/2000/svg">
<rect width="64" height="64" rx="16" fill="#EE3C63"/>
<path d="M42.6666 45.3333H39.9999V42.6666C39.9999 41.6057 39.5785 40.5883 38.8283 39.8382C38.0782 39.088 37.0608 38.6666 35.9999 38.6666H27.9999C26.9391 38.6666 25.9216 39.088 25.1715 39.8382C24.4213 40.5883 23.9999 41.6057 23.9999 42.6666V45.3333H21.3333V42.6666C21.3333 40.8985 22.0356 39.2028 23.2859 37.9525C24.5361 36.7023 26.2318 35.9999 27.9999 35.9999H35.9999C37.768 35.9999 39.4637 36.7023 40.714 37.9525C41.9642 39.2028 42.6666 40.8985 42.6666 42.6666V45.3333ZM31.9999 33.3333C30.9493 33.3333 29.9091 33.1263 28.9385 32.7243C27.9678 32.3223 27.0859 31.733 26.3431 30.9901C25.6002 30.2472 25.0109 29.3653 24.6089 28.3947C24.2068 27.4241 23.9999 26.3838 23.9999 25.3333C23.9999 24.2827 24.2068 23.2424 24.6089 22.2718C25.0109 21.3012 25.6002 20.4193 26.3431 19.6764C27.0859 18.9335 27.9678 18.3443 28.9385 17.9422C29.9091 17.5402 30.9493 17.3333 31.9999 17.3333C34.1216 17.3333 36.1565 18.1761 37.6568 19.6764C39.1571 21.1767 39.9999 23.2115 39.9999 25.3333C39.9999 27.455 39.1571 29.4898 37.6568 30.9901C36.1565 32.4904 34.1216 33.3333 31.9999 33.3333V33.3333ZM31.9999 30.6666C33.4144 30.6666 34.771 30.1047 35.7712 29.1045C36.7713 28.1043 37.3333 26.7477 37.3333 25.3333C37.3333 23.9188 36.7713 22.5622 35.7712 21.562C34.771 20.5618 33.4144 19.9999 31.9999 19.9999C30.5854 19.9999 29.2289 20.5618 28.2287 21.562C27.2285 22.5622 26.6666 23.9188 26.6666 25.3333C26.6666 26.7477 27.2285 28.1043 28.2287 29.1045C29.2289 30.1047 30.5854 30.6666 31.9999 30.6666V30.6666Z" fill="white"/>
</svg>
