<svg width="64" height="64" viewBox="0 0 64 64" fill="none" xmlns="http://www.w3.org/2000/svg">
<rect width="64" height="64" rx="16" fill="#97C93C"/>
<path d="M28.488 30.2427C29.7391 32.4406 31.5594 34.2609 33.7573 35.512L34.936 33.8613C35.1255 33.5959 35.4058 33.4092 35.7237 33.3364C36.0417 33.2637 36.3752 33.31 36.6613 33.4667C38.5471 34.4972 40.6296 35.117 42.772 35.2853C43.1064 35.3118 43.4185 35.4634 43.6461 35.7098C43.8737 35.9561 44 36.2793 44 36.6147V42.564C44.0001 42.8941 43.8777 43.2125 43.6565 43.4576C43.4353 43.7027 43.1311 43.857 42.8027 43.8907C42.096 43.964 41.384 44 40.6667 44C29.2533 44 20 34.7467 20 23.3333C20 22.616 20.036 21.904 20.1093 21.1973C20.143 20.8689 20.2973 20.5647 20.5424 20.3435C20.7875 20.1223 21.1059 19.9999 21.436 20H27.3853C27.7207 20 28.0439 20.1263 28.2902 20.3539C28.5366 20.5815 28.6882 20.8936 28.7147 21.228C28.883 23.3704 29.5028 25.4529 30.5333 27.3387C30.69 27.6248 30.7363 27.9583 30.6636 28.2763C30.5908 28.5942 30.4041 28.8745 30.1387 29.064L28.488 30.2427V30.2427ZM25.1253 29.3667L27.6587 27.5573C26.9397 26.0055 26.4471 24.3585 26.196 22.6667H22.68C22.672 22.888 22.668 23.1107 22.668 23.3333C22.6667 33.2747 30.7253 41.3333 40.6667 41.3333C40.8893 41.3333 41.112 41.3293 41.3333 41.32V37.804C39.6415 37.5529 37.9945 37.0603 36.4427 36.3413L34.6333 38.8747C33.9049 38.5916 33.1973 38.2575 32.516 37.8747L32.4387 37.8307C29.8234 36.3423 27.6577 34.1766 26.1693 31.5613L26.1253 31.484C25.7425 30.8027 25.4084 30.0951 25.1253 29.3667V29.3667Z" fill="white"/>
</svg>
