<svg width="32" height="32" viewBox="0 0 32 32" fill="none" xmlns="http://www.w3.org/2000/svg">
<path d="M26.6667 29.3333H5.33333C4.97971 29.3333 4.64057 29.1929 4.39052 28.9428C4.14048 28.6928 4 28.3536 4 28V4.00001C4 3.64638 4.14048 3.30724 4.39052 3.0572C4.64057 2.80715 4.97971 2.66667 5.33333 2.66667H26.6667C27.0203 2.66667 27.3594 2.80715 27.6095 3.0572C27.8595 3.30724 28 3.64638 28 4.00001V28C28 28.3536 27.8595 28.6928 27.6095 28.9428C27.3594 29.1929 27.0203 29.3333 26.6667 29.3333ZM25.3333 26.6667V5.33334H6.66667V26.6667H25.3333ZM10.6667 9.33334H21.3333V12H10.6667V9.33334ZM10.6667 14.6667H21.3333V17.3333H10.6667V14.6667ZM10.6667 20H21.3333V22.6667H10.6667V20Z" fill="white"/>
</svg>
