<svg width="32" height="32" viewBox="0 0 32 32" fill="none" xmlns="http://www.w3.org/2000/svg">
<path d="M16.0001 29.3333C8.63608 29.3333 2.66675 23.364 2.66675 16C2.66675 8.63601 8.63608 2.66667 16.0001 2.66667C23.3641 2.66667 29.3334 8.63601 29.3334 16C29.3334 23.364 23.3641 29.3333 16.0001 29.3333ZM16.0001 26.6667C18.8291 26.6667 21.5422 25.5429 23.5426 23.5425C25.5429 21.5421 26.6667 18.829 26.6667 16C26.6667 13.171 25.5429 10.4579 23.5426 8.45753C21.5422 6.45714 18.8291 5.33334 16.0001 5.33334C13.1711 5.33334 10.458 6.45714 8.45761 8.45753C6.45722 10.4579 5.33341 13.171 5.33341 16C5.33341 18.829 6.45722 21.5421 8.45761 23.5425C10.458 25.5429 13.1711 26.6667 16.0001 26.6667ZM11.3334 18.6667H18.6667C18.8436 18.6667 19.0131 18.5964 19.1382 18.4714C19.2632 18.3464 19.3334 18.1768 19.3334 18C19.3334 17.8232 19.2632 17.6536 19.1382 17.5286C19.0131 17.4036 18.8436 17.3333 18.6667 17.3333H13.3334C12.4494 17.3333 11.6015 16.9821 10.9764 16.357C10.3513 15.7319 10.0001 14.8841 10.0001 14C10.0001 13.116 10.3513 12.2681 10.9764 11.643C11.6015 11.0179 12.4494 10.6667 13.3334 10.6667H14.6667V8.00001H17.3334V10.6667H20.6667V13.3333H13.3334C13.1566 13.3333 12.987 13.4036 12.862 13.5286C12.737 13.6536 12.6667 13.8232 12.6667 14C12.6667 14.1768 12.737 14.3464 12.862 14.4714C12.987 14.5964 13.1566 14.6667 13.3334 14.6667H18.6667C19.5508 14.6667 20.3986 15.0179 21.0238 15.643C21.6489 16.2681 22.0001 17.116 22.0001 18C22.0001 18.8841 21.6489 19.7319 21.0238 20.357C20.3986 20.9821 19.5508 21.3333 18.6667 21.3333H17.3334V24H14.6667V21.3333H11.3334V18.6667Z" fill="white"/>
</svg>
