<svg width="32" height="32" viewBox="0 0 32 32" fill="none" xmlns="http://www.w3.org/2000/svg">
<path d="M4.00001 17.3333H28V28.0027C28 28.7373 27.4067 29.3333 26.676 29.3333H5.32401C5.14967 29.333 4.97712 29.2983 4.81621 29.2312C4.65529 29.1641 4.50918 29.066 4.38622 28.9424C4.26326 28.8188 4.16586 28.6722 4.09959 28.511C4.03332 28.3497 3.99948 28.177 4.00001 28.0027V17.3333ZM4.00001 3.99734C4.00001 3.26267 4.59334 2.66667 5.32401 2.66667H26.676C27.4067 2.66667 28 3.26134 28 3.99734V14.6667H4.00001V3.99734ZM12 6.66667V9.33334H20V6.66667H12ZM12 21.3333V24H20V21.3333H12Z" fill="white"/>
</svg>
