<svg width="32" height="32" viewBox="0 0 32 32" fill="none" xmlns="http://www.w3.org/2000/svg">
<path d="M2.66675 29.3333C2.66675 26.5044 3.79055 23.7912 5.79094 21.7909C7.79133 19.7905 10.5044 18.6667 13.3334 18.6667C16.1624 18.6667 18.8755 19.7905 20.8759 21.7909C22.8763 23.7912 24.0001 26.5044 24.0001 29.3333H21.3334C21.3334 27.2116 20.4906 25.1768 18.9903 23.6765C17.49 22.1762 15.4551 21.3333 13.3334 21.3333C11.2117 21.3333 9.17685 22.1762 7.67656 23.6765C6.17627 25.1768 5.33341 27.2116 5.33341 29.3333H2.66675ZM13.3334 17.3333C8.91341 17.3333 5.33341 13.7533 5.33341 9.33333C5.33341 4.91333 8.91341 1.33333 13.3334 1.33333C17.7534 1.33333 21.3334 4.91333 21.3334 9.33333C21.3334 13.7533 17.7534 17.3333 13.3334 17.3333ZM13.3334 14.6667C16.2801 14.6667 18.6667 12.28 18.6667 9.33333C18.6667 6.38666 16.2801 3.99999 13.3334 3.99999C10.3867 3.99999 8.00008 6.38666 8.00008 9.33333C8.00008 12.28 10.3867 14.6667 13.3334 14.6667ZM24.3787 19.604C26.2525 20.4479 27.8427 21.815 28.9582 23.5409C30.0737 25.2669 30.667 27.2783 30.6667 29.3333H28.0001C28.0004 27.792 27.5555 26.2833 26.7189 24.9888C25.8822 23.6942 24.6895 22.6689 23.2841 22.036L24.3774 19.604H24.3787ZM23.4614 4.55066C24.8048 5.10439 25.9534 6.04471 26.7614 7.2523C27.5695 8.45989 28.0006 9.88032 28.0001 11.3333C28.0006 13.1631 27.317 14.927 26.0835 16.2784C24.8499 17.6299 23.1556 18.4713 21.3334 18.6373V15.9533C22.3213 15.8118 23.2379 15.3574 23.9485 14.6566C24.6591 13.9559 25.1263 13.0458 25.2816 12.0599C25.4369 11.0741 25.2721 10.0644 24.8113 9.17913C24.3505 8.29387 23.618 7.57966 22.7214 7.14133L23.4614 4.55066Z" fill="white"/>
</svg>
