<svg width="32" height="32" viewBox="0 0 32 32" fill="none" xmlns="http://www.w3.org/2000/svg">
<path d="M5.044 3.768L16 1.33333L26.956 3.768C27.2521 3.83382 27.5169 3.99862 27.7067 4.23521C27.8965 4.47179 27.9999 4.76602 28 5.06933V18.3853C27.9999 19.7023 27.6747 20.9989 27.0532 22.16C26.4317 23.3211 25.5332 24.3108 24.4373 25.0413L16 30.6667L7.56267 25.0413C6.46703 24.311 5.56861 23.3215 4.94713 22.1606C4.32565 20.9997 4.00032 19.7034 4 18.3867V5.06933C4.00005 4.76602 4.10352 4.47179 4.29332 4.23521C4.48312 3.99862 4.74792 3.83382 5.044 3.768ZM6.66667 6.13867V18.3853C6.66668 19.2633 6.88343 20.1276 7.29768 20.9017C7.71193 21.6758 8.31087 22.3356 9.04133 22.8227L16 27.4627L22.9587 22.8227C23.6889 22.3357 24.2878 21.6761 24.702 20.9023C25.1162 20.1285 25.3331 19.2644 25.3333 18.3867V6.13867L16 4.06667L6.66667 6.13867ZM16 14.6667C15.1159 14.6667 14.2681 14.3155 13.643 13.6904C13.0179 13.0652 12.6667 12.2174 12.6667 11.3333C12.6667 10.4493 13.0179 9.60143 13.643 8.97631C14.2681 8.35119 15.1159 8 16 8C16.8841 8 17.7319 8.35119 18.357 8.97631C18.9821 9.60143 19.3333 10.4493 19.3333 11.3333C19.3333 12.2174 18.9821 13.0652 18.357 13.6904C17.7319 14.3155 16.8841 14.6667 16 14.6667ZM10.036 21.3333C10.1976 19.8645 10.8956 18.507 11.9961 17.521C13.0966 16.5349 14.5223 15.9896 16 15.9896C17.4777 15.9896 18.9034 16.5349 20.0039 17.521C21.1044 18.507 21.8024 19.8645 21.964 21.3333H10.036Z" fill="white"/>
</svg>
