<svg width="56" height="57" viewBox="0 0 56 57" fill="none" xmlns="http://www.w3.org/2000/svg">
<rect x="0.5" y="1.16504" width="55" height="55" rx="15.5" stroke="#ECECEC"/>
<path d="M19 19.665H37C37.2652 19.665 37.5196 19.7704 37.7071 19.9579C37.8946 20.1455 38 20.3998 38 20.665V36.665C38 36.9303 37.8946 37.1846 37.7071 37.3721C37.5196 37.5597 37.2652 37.665 37 37.665H19C18.7348 37.665 18.4804 37.5597 18.2929 37.3721C18.1054 37.1846 18 36.9303 18 36.665V20.665C18 20.3998 18.1054 20.1455 18.2929 19.9579C18.4804 19.7704 18.7348 19.665 19 19.665V19.665ZM36 23.903L28.072 31.003L20 23.881V35.665H36V23.903ZM20.511 21.665L28.061 28.327L35.502 21.665H20.511Z" fill="#606161"/>
</svg>
