<svg width="24" height="25" viewBox="0 0 24 25" fill="none" xmlns="http://www.w3.org/2000/svg">
<path d="M13 20.0029C15.0173 19.7463 16.8611 18.7311 18.1568 17.1637C19.4525 15.5964 20.1027 13.5945 19.9754 11.5649C19.848 9.53535 18.9527 7.63043 17.4713 6.23732C15.9898 4.84421 14.0336 4.06746 12 4.06494C9.96396 4.06343 8.00395 4.83828 6.51934 6.23162C5.03473 7.62496 4.13724 9.53193 4.00974 11.564C3.88225 13.596 4.53434 15.6002 5.83314 17.1682C7.13195 18.7362 8.97974 19.75 11 20.0029V14.0649H9V12.0649H11V10.4109C11 9.07394 11.14 8.58894 11.4 8.09994C11.6561 7.61613 12.052 7.22063 12.536 6.96494C12.918 6.75994 13.393 6.63694 14.223 6.58394C14.552 6.56294 14.978 6.58894 15.501 6.66394V8.56394H15C14.083 8.56394 13.704 8.60694 13.478 8.72794C13.3431 8.7973 13.2334 8.90709 13.164 9.04194C13.044 9.26794 13 9.49194 13 10.4099V12.0649H15.5L15 14.0649H13V20.0029ZM12 22.0649C6.477 22.0649 2 17.5879 2 12.0649C2 6.54194 6.477 2.06494 12 2.06494C17.523 2.06494 22 6.54194 22 12.0649C22 17.5879 17.523 22.0649 12 22.0649Z" fill="white"/>
</svg>
