<svg width="56" height="57" viewBox="0 0 56 57" fill="none" xmlns="http://www.w3.org/2000/svg">
<rect x="0.5" y="1.16504" width="55" height="55" rx="15.5" stroke="#ECECEC"/>
<g clip-path="url(#clip0_28_690)">
<path d="M28 40.393L21.636 34.029C20.3773 32.7703 19.5202 31.1666 19.1729 29.4208C18.8257 27.675 19.0039 25.8654 19.6851 24.2209C20.3663 22.5763 21.5198 21.1707 22.9999 20.1818C24.4799 19.1929 26.22 18.665 28 18.665C29.78 18.665 31.5201 19.1929 33.0001 20.1818C34.4802 21.1707 35.6337 22.5763 36.3149 24.2209C36.9961 25.8654 37.1743 27.675 36.8271 29.4208C36.4798 31.1666 35.6227 32.7703 34.364 34.029L28 40.393ZM32.95 32.615C33.9289 31.636 34.5955 30.3887 34.8655 29.0308C35.1356 27.673 34.9969 26.2656 34.4671 24.9865C33.9373 23.7075 33.04 22.6143 31.8889 21.8451C30.7378 21.076 29.3844 20.6655 28 20.6655C26.6156 20.6655 25.2622 21.076 24.1111 21.8451C22.96 22.6143 22.0627 23.7075 21.5329 24.9865C21.0031 26.2656 20.8644 27.673 21.1344 29.0308C21.4045 30.3887 22.0711 31.636 23.05 32.615L28 37.565L32.95 32.615V32.615ZM28 29.665C27.4696 29.665 26.9609 29.4542 26.5858 29.0792C26.2107 28.7041 26 28.1954 26 27.665C26 27.1345 26.2107 26.6258 26.5858 26.2507C26.9609 25.8757 27.4696 25.665 28 25.665C28.5304 25.665 29.0391 25.8757 29.4142 26.2507C29.7893 26.6258 30 27.1345 30 27.665C30 28.1954 29.7893 28.7041 29.4142 29.0792C29.0391 29.4542 28.5304 29.665 28 29.665Z" fill="#606161"/>
</g>
<defs>
<clipPath id="clip0_28_690">
<rect width="24" height="24" fill="white" transform="translate(16 16.665)"/>
</clipPath>
</defs>
</svg>
