<svg width="23" height="24" viewBox="0 0 23 24" fill="none" xmlns="http://www.w3.org/2000/svg">
<g clip-path="url(#clip0_28_718)">
<path fill-rule="evenodd" clip-rule="evenodd" d="M18.6381 12.9197C18.1678 14.2508 16.8764 17.9485 19.0556 18.4599C19.6056 18.5438 20.168 18.4593 20.6691 18.2178C20.8892 18.1353 21.1243 18.1007 21.3589 18.1161C21.5934 18.1316 21.8219 18.1968 22.0292 18.3075C22.2366 18.4181 22.418 18.5717 22.5614 18.7579C22.7048 18.9441 22.8069 19.1587 22.8609 19.3875C23.6005 21.7533 21.2745 23.1658 19.1767 23.0587C16.9849 23.1526 15.3443 21.5661 14.8064 19.5099C13.7036 16.2555 15.4521 12.6386 16.6753 9.70707C17.7642 7.11162 18.7189 4.70474 17.9396 4.44937C16.205 3.89827 13.0315 10.9575 12.0908 12.0868C11.459 12.8522 10.6387 13.5926 9.67081 13.5926C7.93621 13.5926 7.34479 12.2079 7.34479 10.4057C7.41289 8.96816 7.62004 7.54061 7.96334 6.14302C8.09763 5.41658 8.23192 4.66369 7.60014 4.44868C5.78413 3.8433 -0.226093 20.8807 6.22735 18.1913C6.44835 18.1095 6.68427 18.0757 6.91937 18.0922C7.15447 18.1087 7.38335 18.1751 7.59075 18.287C7.79816 18.399 7.97931 18.5538 8.12215 18.7413C8.26498 18.9288 8.36621 19.1446 8.41909 19.3743C9.36049 22.3726 5.29986 23.3948 3.60562 22.9376C2.91505 22.746 2.28023 22.3922 1.75402 21.9056C1.2278 21.4191 0.825407 20.8139 0.580326 20.1404C-0.293585 17.9756 -0.02501 15.0845 0.378548 12.8251C0.448127 12.4772 0.512835 12.1126 0.593546 11.7626C1.00807 9.9977 1.55655 8.26702 2.23422 6.58557C2.48957 5.92662 2.78528 5.26767 3.09491 4.64908C4.34872 2.12251 5.86484 0.0649414 8.5812 0.0649414C12.8568 0.0649414 9.53583 7.67594 10.8001 7.95845C12.0643 8.25418 14.3361 1.24855 17.0392 0.253512C17.5431 0.101524 18.074 0.0612821 18.595 0.135593C19.1159 0.209904 19.6145 0.396979 20.0557 0.68377C20.497 0.970562 20.8704 1.35017 21.1498 1.79611C21.4293 2.24205 21.6081 2.74359 21.6739 3.26576C22.2555 5.37622 19.4856 10.5024 18.6381 12.9197Z" fill="#03B163"/>
</g>
<defs>
<clipPath id="clip0_28_718">
<rect width="23" height="23" fill="white" transform="translate(0 0.0649414)"/>
</clipPath>
</defs>
</svg>
