<svg width="56" height="57" viewBox="0 0 56 57" fill="none" xmlns="http://www.w3.org/2000/svg">
<rect x="0.5" y="1.16504" width="55" height="55" rx="15.5" stroke="#ECECEC"/>
<path d="M25.366 27.347C26.3043 28.9955 27.6695 30.3607 29.318 31.299L30.202 30.061C30.3442 29.862 30.5544 29.7219 30.7928 29.6674C31.0313 29.6128 31.2814 29.6476 31.496 29.765C32.9103 30.538 34.4722 31.0028 36.079 31.129C36.3298 31.1489 36.5638 31.2626 36.7345 31.4474C36.9052 31.6321 37 31.8745 37 32.126V36.588C37.0001 36.8356 36.9083 37.0744 36.7424 37.2582C36.5765 37.4421 36.3483 37.5578 36.102 37.583C35.572 37.638 35.038 37.665 34.5 37.665C25.94 37.665 19 30.725 19 22.165C19 21.627 19.027 21.093 19.082 20.563C19.1073 20.3167 19.223 20.0886 19.4068 19.9227C19.5906 19.7568 19.8294 19.665 20.077 19.665H24.539C24.7906 19.665 25.0329 19.7598 25.2177 19.9305C25.4025 20.1012 25.5161 20.3353 25.536 20.586C25.6622 22.1928 26.1271 23.7547 26.9 25.169C27.0175 25.3836 27.0522 25.6338 26.9977 25.8722C26.9431 26.1107 26.8031 26.3209 26.604 26.463L25.366 27.347V27.347ZM22.844 26.69L24.744 25.333C24.2048 24.1691 23.8354 22.9339 23.647 21.665H21.01C21.004 21.831 21.001 21.998 21.001 22.165C21 29.621 27.044 35.665 34.5 35.665C34.667 35.665 34.834 35.662 35 35.655V33.018C33.7312 32.8297 32.4959 32.4603 31.332 31.921L29.975 33.821C29.4287 33.6088 28.898 33.3581 28.387 33.071L28.329 33.038C26.3676 31.9218 24.7433 30.2975 23.627 28.336L23.594 28.278C23.3069 27.767 23.0563 27.2364 22.844 26.69V26.69Z" fill="#606161"/>
</svg>
