<svg width="28" height="28" viewBox="0 0 28 28" fill="none" xmlns="http://www.w3.org/2000/svg">
<path d="M13.9997 25.6667C7.55618 25.6667 2.33301 20.4435 2.33301 14C2.33301 7.55651 7.55618 2.33334 13.9997 2.33334C20.4432 2.33334 25.6663 7.55651 25.6663 14C25.6663 20.4435 20.4432 25.6667 13.9997 25.6667ZM13.9997 23.3333C16.475 23.3333 18.849 22.35 20.5993 20.5997C22.3497 18.8493 23.333 16.4754 23.333 14C23.333 11.5247 22.3497 9.15069 20.5993 7.40035C18.849 5.65001 16.475 4.66668 13.9997 4.66668C11.5243 4.66668 9.15035 5.65001 7.40001 7.40035C5.64967 9.15069 4.66634 11.5247 4.66634 14C4.66634 16.4754 5.64967 18.8493 7.40001 20.5997C9.15035 22.35 11.5243 23.3333 13.9997 23.3333V23.3333ZM12.392 9.81751L18.0842 13.6115C18.1482 13.6541 18.2007 13.7119 18.237 13.7796C18.2733 13.8474 18.2923 13.9231 18.2923 14C18.2923 14.0769 18.2733 14.1526 18.237 14.2204C18.2007 14.2882 18.1482 14.3459 18.0842 14.3885L12.3908 18.1825C12.3206 18.229 12.2392 18.2557 12.155 18.2597C12.0709 18.2637 11.9873 18.2448 11.913 18.2051C11.8387 18.1654 11.7766 18.1063 11.7331 18.0341C11.6897 17.962 11.6666 17.8794 11.6663 17.7952V10.2048C11.6665 10.1204 11.6895 10.0377 11.733 9.96531C11.7765 9.89296 11.8388 9.83376 11.9133 9.79402C11.9877 9.75427 12.0716 9.73546 12.1559 9.7396C12.2402 9.74374 12.3218 9.77066 12.392 9.81751V9.81751Z" fill="black"/>
</svg>
