<svg width="20" height="20" viewBox="0 0 20 20" fill="none" xmlns="http://www.w3.org/2000/svg">
<path d="M14.167 2.49999H17.5003C17.7213 2.49999 17.9333 2.58779 18.0896 2.74407C18.2459 2.90035 18.3337 3.11231 18.3337 3.33333V16.6667C18.3337 16.8877 18.2459 17.0996 18.0896 17.2559C17.9333 17.4122 17.7213 17.5 17.5003 17.5H2.50033C2.27931 17.5 2.06735 17.4122 1.91107 17.2559C1.75479 17.0996 1.66699 16.8877 1.66699 16.6667V3.33333C1.66699 3.11231 1.75479 2.90035 1.91107 2.74407C2.06735 2.58779 2.27931 2.49999 2.50033 2.49999H5.83366V0.833328H7.50033V2.49999H12.5003V0.833328H14.167V2.49999ZM12.5003 4.16666H7.50033V5.83333H5.83366V4.16666H3.33366V7.49999H16.667V4.16666H14.167V5.83333H12.5003V4.16666ZM16.667 9.16666H3.33366V15.8333H16.667V9.16666Z" fill="#2EA8E0"/>
</svg>
